<svg xmlns="http://www.w3.org/2000/svg" width="1536" height="1024" viewBox="0 0 1536 1024">
  <defs>
    <linearGradient id="tealBtn" x1="0" y1="0" x2="1" y2="1">
      <stop offset="0" stop-color="#11afa9"/>
      <stop offset="1" stop-color="#007e77"/>
    </linearGradient>
    <linearGradient id="orangeBtn" x1="0" y1="0" x2="1" y2="1">
      <stop offset="0" stop-color="#ff9718"/>
      <stop offset="1" stop-color="#f16600"/>
    </linearGradient>
    <linearGradient id="blueBg" x1="0" y1="0" x2="1" y2="1">
      <stop offset="0" stop-color="#062c68"/>
      <stop offset="1" stop-color="#061d55"/>
    </linearGradient>
    <linearGradient id="aquaBg" x1="0" y1="0" x2="1" y2="1">
      <stop offset="0" stop-color="#15bdb4"/>
      <stop offset="1" stop-color="#05a59d"/>
    </linearGradient>
    <filter id="shadow" x="-20%" y="-30%" width="140%" height="170%">
      <feDropShadow dx="0" dy="7" stdDeviation="7" flood-color="#071b35" flood-opacity=".18"/>
    </filter>
    <filter id="softShadow" x="-20%" y="-30%" width="140%" height="170%">
      <feDropShadow dx="0" dy="4" stdDeviation="5" flood-color="#061b2c" flood-opacity=".15"/>
    </filter>
    <filter id="paperShadow" x="-30%" y="-30%" width="160%" height="160%">
      <feDropShadow dx="0" dy="4" stdDeviation="4" flood-color="#31516a" flood-opacity=".18"/>
    </filter>
    <style>
      .font { font-family: "Hiragino Sans", "Yu Gothic", "Noto Sans JP", sans-serif; font-weight: 700; }
      .body { font-family: "Hiragino Sans", "Yu Gothic", "Noto Sans JP", sans-serif; font-weight: 700; }
      .navy { fill: #061a4d; }
      .teal { fill: #00958e; }
      .orange { fill: #f56d00; }
      .yellow { fill: #ffe12f; }
      .white { fill: #ffffff; }
      .stroke-teal { stroke: #00958e; }
      .stroke-navy { stroke: #061a4d; }
      .stroke-orange { stroke: #f59a00; }
      .muted-stroke { stroke: #d5e1e5; }
      .thin { stroke-width: 2; fill: none; stroke-linecap: round; stroke-linejoin: round; }
      .mid { stroke-width: 3; fill: none; stroke-linecap: round; stroke-linejoin: round; }
    </style>
  </defs>

  <rect width="1536" height="1024" fill="#ffffff"/>

  <g class="font" font-size="23" text-anchor="middle">
    <circle cx="48" cy="66" r="18" fill="#10aaa4"/><text x="48" y="75" fill="#fff">1</text>
    <circle cx="48" cy="231" r="18" fill="#10aaa4"/><text x="48" y="240" fill="#fff">2</text>
    <circle cx="48" cy="406" r="18" fill="#10aaa4"/><text x="48" y="415" fill="#fff">3</text>
    <circle cx="48" cy="568" r="18" fill="#10aaa4"/><text x="48" y="577" fill="#fff">4</text>
    <circle cx="48" cy="727" r="18" fill="#10aaa4"/><text x="48" y="736" fill="#fff">5</text>
    <circle cx="48" cy="884" r="18" fill="#10aaa4"/><text x="48" y="893" fill="#fff">6</text>
  </g>

  <!-- 1 -->
  <g transform="translate(92 32)">
    <rect width="1380" height="148" rx="14" fill="#fff" stroke="#02a59d" stroke-width="1.5" filter="url(#softShadow)"/>
    <text class="font navy" x="50" y="58" font-size="36">下書きを</text>
    <text class="font teal" x="195" y="58" font-size="36">無料で添削。</text>
    <text class="font teal" x="410" y="58" font-size="36">1分</text>
    <text class="font navy" x="475" y="58" font-size="36">で結果。</text>

    <g transform="translate(52 84)">
      <circle cx="20" cy="18" r="20" class="mid stroke-teal"/><text class="body teal" x="20" y="27" text-anchor="middle" font-size="23">¥0</text>
      <text class="body navy" x="54" y="26" font-size="17">完全無料</text>
      <line x1="174" y1="-2" x2="174" y2="38" stroke="#edf2f4"/>
      <circle cx="210" cy="7" r="8" class="mid stroke-teal"/><path d="M193 39v-8c0-13 34-13 34 0v8Z" class="mid stroke-teal"/>
      <text class="body navy" x="242" y="26" font-size="17">登録不要</text>
      <line x1="352" y1="-2" x2="352" y2="38" stroke="#edf2f4"/>
      <circle cx="402" cy="18" r="19" class="mid stroke-teal"/><path d="M402 1v-7M402 18V7M402 18h8" class="mid stroke-teal"/>
      <text class="body navy" x="436" y="26" font-size="17">1分で結果</text>
    </g>

    <text class="body teal" x="1045" y="49" font-size="17">＼ たった1分で結果がわかる！ ／</text>
    <g class="thin stroke-orange">
      <path d="M1264 44l-5-12M1282 43V29M1299 47l8-11"/>
    </g>
    <rect x="845" y="64" width="475" height="68" rx="34" fill="url(#tealBtn)" filter="url(#shadow)"/>
    <text class="font white" x="1032" y="108" font-size="27" text-anchor="middle">無料で添削を試す</text>
    <path d="M1254 89l17 17-17 17M1230 106h40" stroke="#fff" stroke-width="3" fill="none" stroke-linecap="round" stroke-linejoin="round"/>
  </g>

  <!-- 2 -->
  <g transform="translate(92 207)">
    <rect width="1380" height="147" rx="13" fill="#f8fdff" stroke="#c8e9ec" stroke-width="1.5" filter="url(#softShadow)"/>
    <text class="font navy" x="50" y="58" font-size="37">下書きを</text>
    <text class="font teal" x="225" y="58" font-size="37">無料で添削。</text>
    <text class="font teal" x="463" y="58" font-size="37">1分</text>
    <text class="font navy" x="530" y="58" font-size="37">で結果。</text>
    <g transform="translate(52 82)">
      <g><rect x="0" y="0" width="178" height="45" rx="22" fill="#fff" stroke="#d5e1e5" stroke-width="1.5"/><circle cx="36" cy="22" r="13" class="mid stroke-teal"/><text class="body teal" x="36" y="29" text-anchor="middle" font-size="17">¥0</text><text class="body navy" x="68" y="30" font-size="19">完全無料</text></g>
      <g transform="translate(192 0)"><rect x="0" y="0" width="178" height="45" rx="22" fill="#fff" stroke="#d5e1e5" stroke-width="1.5"/><circle cx="38" cy="14" r="7" class="mid stroke-teal"/><path d="M24 34v-5c0-10 28-10 28 0v5Z" class="mid stroke-teal"/><text class="body navy" x="70" y="30" font-size="19">登録不要</text></g>
      <g transform="translate(384 0)"><rect x="0" y="0" width="182" height="45" rx="22" fill="#fff" stroke="#d5e1e5" stroke-width="1.5"/><circle cx="35" cy="22" r="13" class="mid stroke-teal"/><path d="M35 13v9h7" class="mid stroke-teal"/><text class="body navy" x="66" y="30" font-size="19">1分で結果</text></g>
    </g>
    <line x1="758" y1="26" x2="758" y2="122" stroke="#d5e1e5" stroke-width="1.5"/>
    <rect x="882" y="41" width="438" height="73" rx="36.5" fill="url(#tealBtn)" filter="url(#shadow)"/>
    <text class="font white" x="1118" y="88" font-size="26" text-anchor="middle">無料で添削を試す</text>
    <path d="M1260 67l17 17-17 17M1238 84h38" stroke="#fff" stroke-width="3" fill="none" stroke-linecap="round" stroke-linejoin="round"/>
    <circle cx="895" cy="74" r="48" fill="#fff" filter="url(#shadow)"/>
    <text class="font teal" x="895" y="66" font-size="19" text-anchor="middle">今すぐ</text>
    <text class="font teal" x="895" y="96" font-size="25" text-anchor="middle">1分!</text>
  </g>

  <!-- 3 -->
  <g transform="translate(92 382)">
    <rect width="1380" height="138" rx="13" fill="#fffdf5" stroke="#f3d46b" stroke-width="1.5" filter="url(#softShadow)"/>
    <g transform="translate(52 18)">
      <rect x="0" y="0" width="88" height="103" rx="5" fill="#f8fbff" stroke="#d7dee5" stroke-width="2" filter="url(#paperShadow)"/>
      <path d="M18 22h54M18 40h54M18 58h37" stroke="#c7ced5" stroke-width="3" stroke-linecap="round"/>
      <path d="M106 14l7 17 16 6-16 7-7 18-7-18-16-7 16-6Z" fill="#ffd936"/>
      <path d="M-17 62l6 14 13 5-13 5-6 14-6-14-13-5 13-5Z" fill="#ffd936"/>
      <circle cx="82" cy="80" r="28" fill="#3f8df1"/>
      <path d="M68 80l11 11 22-24" stroke="#fff" stroke-width="6" fill="none" stroke-linecap="round" stroke-linejoin="round"/>
    </g>
    <text class="font navy" x="198" y="62" font-size="36">下書きを</text>
    <text class="font orange" x="355" y="62" font-size="36">無料で添削。</text>
    <text class="font orange" x="205" y="108" font-size="36">1分</text>
    <text class="font navy" x="270" y="108" font-size="36">で結果。</text>
    <g class="body navy" font-size="16" text-anchor="middle" transform="translate(605 30)">
      <line x1="0" y1="0" x2="0" y2="82" stroke="#eedca8"/>
      <g transform="translate(56 0)"><circle cx="0" cy="16" r="19" class="mid stroke-orange"/><text class="body orange" x="0" y="24" font-size="23">¥0</text><text x="0" y="66">完全無料</text></g>
      <line x1="112" y1="0" x2="112" y2="82" stroke="#eedca8"/>
      <g transform="translate(168 0)"><circle cx="0" cy="10" r="8" class="mid stroke-orange"/><path d="M-16 42v-8c0-12 32-12 32 0v8Z" class="mid stroke-orange"/><text x="0" y="66">登録不要</text></g>
      <line x1="224" y1="0" x2="224" y2="82" stroke="#eedca8"/>
      <g transform="translate(280 0)"><circle cx="0" cy="19" r="17" class="mid stroke-orange"/><path d="M0 8v11h8" class="mid stroke-orange"/><text x="0" y="66">1分で結果</text></g>
    </g>
    <text class="body orange" x="1150" y="35" font-size="20" text-anchor="middle">＼ 今すぐチェック！ ／</text>
    <rect x="965" y="49" width="388" height="70" rx="35" fill="url(#orangeBtn)" filter="url(#shadow)"/>
    <text class="font white" x="1147" y="94" font-size="28" text-anchor="middle">無料で添削を試す</text>
    <path d="M1287 73l17 17-17 17M1264 90h39" stroke="#fff" stroke-width="3" fill="none" stroke-linecap="round" stroke-linejoin="round"/>
  </g>

  <!-- 4 -->
  <g transform="translate(92 541)">
    <rect width="1380" height="134" rx="13" fill="#fff" stroke="#bfe4e8" stroke-width="1.5" filter="url(#softShadow)"/>
    <g transform="translate(48 21)">
      <circle cx="47" cy="48" r="47" fill="#f9fdfe" stroke="#b8c9cf" stroke-width="3"/>
      <path d="M47 -4v12M47 88v12M-5 48H7M87 48h12" stroke="#b8c9cf" stroke-width="3"/>
      <rect x="36" y="-3" width="21" height="9" fill="#5fb5ad" rx="1"/>
      <text class="font teal" x="47" y="54" font-size="48" text-anchor="middle">1</text>
      <text class="font teal" x="47" y="75" font-size="15" text-anchor="middle">min</text>
      <path d="M77 4l6-13M89 13l12-9M97 28l15-2" stroke="#ffd52e" stroke-width="3" fill="none" stroke-linecap="round"/>
    </g>
    <text class="font navy" x="198" y="54" font-size="36">下書きを</text>
    <text class="font teal" x="338" y="54" font-size="36">無料で添削。</text>
    <text class="font navy" x="558" y="54" font-size="36">改善点がすぐわかる。</text>
    <g transform="translate(198 73)">
      <g><rect width="173" height="44" rx="22" fill="#fff" stroke="#cddde1" stroke-width="1.5"/><circle cx="33" cy="22" r="13" class="mid stroke-teal"/><path d="M26 22l5 5 10-11" class="mid stroke-teal"/><text class="body navy" x="65" y="30" font-size="18">完全無料</text></g>
      <g transform="translate(190 0)"><rect width="173" height="44" rx="22" fill="#fff" stroke="#cddde1" stroke-width="1.5"/><circle cx="33" cy="22" r="13" class="mid stroke-teal"/><path d="M26 22l5 5 10-11" class="mid stroke-teal"/><text class="body navy" x="65" y="30" font-size="18">登録不要</text></g>
      <g transform="translate(380 0)"><rect width="183" height="44" rx="22" fill="#fff" stroke="#cddde1" stroke-width="1.5"/><circle cx="34" cy="22" r="13" class="mid stroke-teal"/><path d="M27 22l5 5 10-11" class="mid stroke-teal"/><text class="body navy" x="66" y="30" font-size="18">すぐ試せる</text></g>
    </g>
    <rect x="940" y="33" width="380" height="73" rx="36.5" fill="url(#tealBtn)" filter="url(#shadow)"/>
    <text class="font white" x="1134" y="80" font-size="26" text-anchor="middle">無料で添削を試す</text>
    <path d="M1272 59l17 17-17 17M1249 76h39" stroke="#fff" stroke-width="3" fill="none" stroke-linecap="round" stroke-linejoin="round"/>
    <circle cx="945" cy="67" r="46" fill="#ffdf35" filter="url(#softShadow)"/>
    <text class="font navy" x="945" y="61" font-size="20" text-anchor="middle">最短</text>
    <text class="font navy" x="945" y="87" font-size="20" text-anchor="middle">1分!</text>
  </g>

  <!-- 5 -->
  <g transform="translate(92 696)">
    <rect width="1380" height="134" rx="12" fill="url(#blueBg)" filter="url(#softShadow)"/>
    <g fill="#fff">
      <path opacity=".9" d="M102 30l8 22 22 8-22 8-8 22-8-22-22-8 22-8Z"/>
      <path opacity=".8" d="M130 73l6 17 17 6-17 6-6 17-6-17-17-6 17-6Z"/>
      <path opacity=".18" d="M55 23l6 15 15 6-15 6-6 15-6-15-15-6 15-6Z"/>
      <path opacity=".13" d="M72 76l5 12 12 5-12 5-5 12-5-12-12-5 12-5Z"/>
    </g>
    <text class="font white" x="168" y="58" font-size="35">下書きを</text>
    <text class="font yellow" x="326" y="58" font-size="35">無料で添削。</text>
    <text class="font yellow" x="582" y="58" font-size="35">1分</text>
    <text class="font white" x="642" y="58" font-size="35">で結果。</text>
    <g transform="translate(168 74)">
      <g><rect width="190" height="43" rx="21.5" fill="#fff"/><circle cx="45" cy="21" r="13" class="mid stroke-navy"/><text class="body navy" x="45" y="28" text-anchor="middle" font-size="17">¥0</text><text class="body navy" x="78" y="29" font-size="18">完全無料</text></g>
      <g transform="translate(205 0)"><rect width="190" height="43" rx="21.5" fill="#fff"/><circle cx="51" cy="13" r="7" class="mid stroke-navy"/><path d="M37 34v-6c0-10 28-10 28 0v6Z" class="mid stroke-navy"/><text class="body navy" x="84" y="29" font-size="18">登録不要</text></g>
      <g transform="translate(410 0)"><rect width="193" height="43" rx="21.5" fill="#fff"/><circle cx="51" cy="21" r="13" class="mid stroke-navy"/><path d="M51 12v9h7" class="mid stroke-navy"/><text class="body navy" x="84" y="29" font-size="18">1分で結果</text></g>
    </g>
    <text class="body white" x="1148" y="36" font-size="18" text-anchor="middle">＼ 最短1分で結果がわかる！ ／</text>
    <rect x="938" y="48" width="380" height="67" rx="33.5" fill="#ffdf2e" filter="url(#shadow)"/>
    <text class="font navy" x="1122" y="91" font-size="24" text-anchor="middle">無料で添削を試す</text>
    <path d="M1262 71l17 17-17 17M1239 88h39" stroke="#061a4d" stroke-width="3" fill="none" stroke-linecap="round" stroke-linejoin="round"/>
  </g>

  <!-- 6 -->
  <g transform="translate(92 856)">
    <rect width="1380" height="132" rx="12" fill="url(#aquaBg)" filter="url(#softShadow)"/>
    <path d="M0 0h1380v132H0Z" fill="#fff" opacity=".03"/>
    <g opacity=".08" stroke="#fff" stroke-width="1">
      <path d="M40 132L172 0M115 132L247 0M190 132L322 0M265 132L397 0M340 132L472 0M415 132L547 0M490 132L622 0M565 132L697 0M640 132L772 0M715 132L847 0M790 132L922 0M865 132L997 0M940 132L1072 0M1015 132L1147 0M1090 132L1222 0M1165 132L1297 0"/>
    </g>
    <circle cx="106" cy="66" r="55" fill="#fff" filter="url(#shadow)"/>
    <text class="font teal" x="106" y="58" font-size="20" text-anchor="middle">今すぐ</text>
    <text class="font teal" x="106" y="86" font-size="20" text-anchor="middle">試せる!</text>
    <text class="font white" x="200" y="58" font-size="36">下書きを</text>
    <text class="font yellow" x="360" y="58" font-size="36">無料で添削。</text>
    <text class="font yellow" x="595" y="58" font-size="36">1分</text>
    <text class="font white" x="660" y="58" font-size="36">で結果。</text>
    <g class="body white" font-size="18" transform="translate(200 91)">
      <circle cx="16" cy="0" r="13" class="mid" stroke="#fff"/><text x="16" y="7" text-anchor="middle" font-size="17">¥0</text><text x="47" y="7">完全無料</text>
      <line x1="157" y1="-17" x2="157" y2="17" stroke="#fff" opacity=".45"/>
      <circle cx="205" cy="-7" r="7" class="mid" stroke="#fff"/><path d="M191 17v-6c0-10 28-10 28 0v6Z" class="mid" stroke="#fff"/><text x="234" y="7">登録不要</text>
      <line x1="347" y1="-17" x2="347" y2="17" stroke="#fff" opacity=".45"/>
      <circle cx="394" cy="0" r="13" class="mid" stroke="#fff"/><path d="M394 -9v9h7" class="mid" stroke="#fff"/><text x="425" y="7">1分で結果</text>
    </g>
    <rect x="905" y="41" width="420" height="70" rx="35" fill="#fff" filter="url(#shadow)"/>
    <text class="font teal" x="1104" y="85" font-size="25" text-anchor="middle">無料で添削を試す</text>
    <path d="M1250 65l17 17-17 17M1227 82h39" stroke="#00958e" stroke-width="3" fill="none" stroke-linecap="round" stroke-linejoin="round"/>
    <path d="M1285 32l5-14M1300 37l15-10M1270 29l-1-15" stroke="#ffdf35" stroke-width="3" fill="none" stroke-linecap="round"/>
  </g>
</svg>
